<?xml version="1.0" encoding="UTF-8" standalone="no"?>
<svg
   xmlns:dc="http://purl.org/dc/elements/1.1/"
   xmlns:cc="http://creativecommons.org/ns#"
   xmlns:rdf="http://www.w3.org/1999/02/22-rdf-syntax-ns#"
   xmlns:svg="http://www.w3.org/2000/svg"
   xmlns="http://www.w3.org/2000/svg"
   xmlns:sodipodi="http://sodipodi.sourceforge.net/DTD/sodipodi-0.dtd"
   xmlns:inkscape="http://www.inkscape.org/namespaces/inkscape"
   version="1.1"
   x="0px"
   y="0px"
   viewBox="0 0 90 112.5"
   enable-background="new 0 0 90 90"
   xml:space="preserve"
   id="svg2"
   inkscape:version="0.91 r13725"
   sodipodi:docname="noun_cube_39539.svg"><metadata
     id="metadata26"><rdf:RDF><cc:Work
         rdf:about=""><dc:format>image/svg+xml</dc:format><dc:type
           rdf:resource="http://purl.org/dc/dcmitype/StillImage" /></cc:Work></rdf:RDF></metadata><defs
     id="defs24" /><sodipodi:namedview
     pagecolor="#ffffff"
     bordercolor="#666666"
     borderopacity="1"
     objecttolerance="10"
     gridtolerance="10"
     guidetolerance="10"
     inkscape:pageopacity="0"
     inkscape:pageshadow="2"
     inkscape:window-width="640"
     inkscape:window-height="480"
     id="namedview22"
     showgrid="false"
     inkscape:zoom="2.0977778"
     inkscape:cx="45"
     inkscape:cy="56.25"
     inkscape:window-x="0"
     inkscape:window-y="1"
     inkscape:window-maximized="0"
     inkscape:current-layer="svg2" /><g
     id="g4"><g
       id="g6"><path
         fill="#000000"
         d="M42.033,42.164c1.632,0.946,4.301,0.946,5.933-0.001l29.815-17.302c1.632-0.947,1.63-2.493-0.004-3.437    L47.97,4.214c-1.633-0.943-4.306-0.943-5.94,0L12.214,21.429c-1.634,0.943-1.635,2.489-0.003,3.436L42.033,42.164z"
         id="path8" /></g><g
       id="g10"><path
         fill="#000000"
         d="M43.714,49.542c0-1.887-1.335-4.204-2.967-5.151l-29.908-17.35c-1.632-0.947-2.967-0.178-2.967,1.708    v34.628c0,1.887,1.336,4.201,2.97,5.145l29.901,17.263c1.634,0.943,2.97,0.172,2.97-1.715V49.542z"
         id="path12" /></g><g
       id="g14"><path
         fill="#000000"
         d="M49.253,44.391c-1.632,0.947-2.967,3.265-2.967,5.151V84.07c0,1.887,1.337,2.658,2.971,1.715    l29.899-17.263c1.634-0.943,2.971-3.258,2.971-5.145V28.742c0-1.886-1.335-2.655-2.967-1.708L49.253,44.391z"
         id="path16" /></g></g></svg>