<?xml version="1.0" encoding="UTF-8" standalone="no"?>
<svg
   xmlns:dc="http://purl.org/dc/elements/1.1/"
   xmlns:cc="http://creativecommons.org/ns#"
   xmlns:rdf="http://www.w3.org/1999/02/22-rdf-syntax-ns#"
   xmlns:svg="http://www.w3.org/2000/svg"
   xmlns="http://www.w3.org/2000/svg"
   xmlns:sodipodi="http://sodipodi.sourceforge.net/DTD/sodipodi-0.dtd"
   xmlns:inkscape="http://www.inkscape.org/namespaces/inkscape"
   version="1.1"
   x="0px"
   y="0px"
   viewBox="0 0 100 125"
   enable-background="new 0 0 100 100"
   xml:space="preserve"
   id="svg2"
   inkscape:version="0.91 r13725"
   sodipodi:docname="noun_Circle_666334.svg"><metadata
     id="metadata26"><rdf:RDF><cc:Work
         rdf:about=""><dc:format>image/svg+xml</dc:format><dc:type
           rdf:resource="http://purl.org/dc/dcmitype/StillImage" /></cc:Work></rdf:RDF></metadata><defs
     id="defs24" /><sodipodi:namedview
     pagecolor="#ffffff"
     bordercolor="#666666"
     borderopacity="1"
     objecttolerance="10"
     gridtolerance="10"
     guidetolerance="10"
     inkscape:pageopacity="0"
     inkscape:pageshadow="2"
     inkscape:window-width="640"
     inkscape:window-height="480"
     id="namedview22"
     showgrid="false"
     inkscape:zoom="1.888"
     inkscape:cx="50"
     inkscape:cy="62.5"
     inkscape:window-x="0"
     inkscape:window-y="0"
     inkscape:window-maximized="0"
     inkscape:current-layer="svg2" /><g
     id="g4"><g
       id="g6"><path
         d="M49.4,72.8c-12.6,0-22.8-10.2-22.8-22.8s10.2-22.8,22.8-22.8S72.3,37.4,72.3,50S62,72.8,49.4,72.8z M49.4,39.3    c-5.9,0-10.7,4.8-10.7,10.7s4.8,10.7,10.7,10.7S60.2,55.9,60.2,50S55.4,39.3,49.4,39.3z"
         id="path8" /></g><g
       id="g10"><circle
         cx="24"
         cy="76.1"
         r="6.7"
         id="circle12" /></g><g
       id="g14"><path
         d="M49.4,95.3c-6.3,0-12.5-1.3-18.2-3.8l4.9-11.1c4.2,1.9,8.7,2.8,13.4,2.8c18.3,0,33.2-14.9,33.2-33.2S67.8,16.8,49.4,16.8    S16.2,31.7,16.2,50c0,5.4,1.3,10.6,3.8,15.4L9.3,71c-3.4-6.4-5.1-13.7-5.1-21c0-25,20.3-45.3,45.3-45.3S94.7,25,94.7,50    S74.4,95.3,49.4,95.3z"
         id="path16" /></g></g></svg>